<svg width="1024" height="1024" viewBox="0 0 1024 1024" fill="none" xmlns="http://www.w3.org/2000/svg">
  <rect width="1024" height="1024" rx="232" fill="url(#bg)"/>
  <rect x="78" y="78" width="868" height="868" rx="198" fill="url(#panel)" stroke="rgba(255,255,255,0.24)"/>
  <path d="M264 720V252H392V610H720V720H264Z" fill="url(#mark)"/>
  <path d="M416 328H742L652 418H416V328Z" fill="#F6C88B"/>
  <path d="M416 482H612L522 572H416V482Z" fill="#D9814F"/>
  <circle cx="742" cy="730" r="96" fill="url(#glow)" fill-opacity="0.92"/>
  <path d="M692 730L742 680L792 730L742 780L692 730Z" fill="#FFF8EE"/>
  <defs>
    <linearGradient id="bg" x1="112" y1="94" x2="896" y2="930" gradientUnits="userSpaceOnUse">
      <stop stop-color="#142A2A"/>
      <stop offset="0.48" stop-color="#1E4D49"/>
      <stop offset="1" stop-color="#D06D3D"/>
    </linearGradient>
    <linearGradient id="panel" x1="154" y1="138" x2="856" y2="884" gradientUnits="userSpaceOnUse">
      <stop stop-color="#143A36" stop-opacity="0.88"/>
      <stop offset="1" stop-color="#0F2523" stop-opacity="0.62"/>
    </linearGradient>
    <linearGradient id="mark" x1="264" y1="252" x2="720" y2="720" gradientUnits="userSpaceOnUse">
      <stop stop-color="#FFF3D9"/>
      <stop offset="1" stop-color="#F4A261"/>
    </linearGradient>
    <radialGradient id="glow" cx="0" cy="0" r="1" gradientUnits="userSpaceOnUse" gradientTransform="translate(742 730) rotate(90) scale(96)">
      <stop stop-color="#F7D7A8"/>
      <stop offset="1" stop-color="#E08A52"/>
    </radialGradient>
  </defs>
</svg>
